<svg width="24" height="24" viewBox="0 0 24 24" fill="none" xmlns="http://www.w3.org/2000/svg">
<path fill-rule="evenodd" clip-rule="evenodd" d="M5.78801 14.02C5.83098 14.0343 5.87516 14.0447 5.92001 14.051C6.20293 14.7176 6.48427 15.385 6.76401 16.053C7.26701 17.255 7.77401 18.493 7.88501 18.849C8.02401 19.287 8.17001 19.585 8.33001 19.789C8.41301 19.893 8.50801 19.985 8.62001 20.055C8.67835 20.0915 8.74078 20.121 8.80601 20.143C9.12601 20.263 9.41801 20.213 9.60101 20.152C9.7084 20.1153 9.81058 20.0649 9.90501 20.002L9.91001 20L12.736 18.238L16.001 20.74C16.049 20.777 16.101 20.808 16.157 20.833C16.549 21.003 16.929 21.063 17.287 21.015C17.643 20.965 17.926 20.816 18.137 20.647C18.3793 20.4517 18.5725 20.2024 18.701 19.919L18.71 19.897L18.713 19.889L18.715 19.885V19.883L18.716 19.882C18.7334 19.839 18.7468 19.7945 18.756 19.749L21.736 4.72399C21.7454 4.67589 21.7501 4.62699 21.75 4.57799C21.75 4.13799 21.584 3.71899 21.195 3.46599C20.861 3.24899 20.49 3.23899 20.255 3.25699C20.003 3.27699 19.769 3.33899 19.612 3.38899C19.5241 3.41684 19.4374 3.4482 19.352 3.48299L19.341 3.48799L2.62701 10.044L2.62501 10.045C2.56846 10.0658 2.51275 10.0888 2.45801 10.114C2.32547 10.1736 2.19833 10.2445 2.07801 10.326C1.85101 10.481 1.32801 10.907 1.41701 11.611C1.48701 12.171 1.87101 12.516 2.10601 12.682C2.23401 12.773 2.35601 12.838 2.44601 12.881C2.48601 12.901 2.57201 12.935 2.60901 12.951L2.61901 12.954L5.78801 14.02ZM19.926 4.86799H19.924C19.9154 4.87181 19.9067 4.87548 19.898 4.87899L3.16401 11.444C3.1554 11.4475 3.14673 11.4508 3.13801 11.454L3.12801 11.457C3.09744 11.469 3.06741 11.4823 3.03801 11.497C3.06584 11.5129 3.09456 11.5273 3.12401 11.54L6.26601 12.598C6.32216 12.6169 6.37586 12.6424 6.42601 12.674L16.803 6.59899L16.813 6.59399C16.8533 6.56949 16.8947 6.5468 16.937 6.52599C17.009 6.48899 17.124 6.43499 17.254 6.39499C17.344 6.36699 17.611 6.28799 17.899 6.38099C18.0518 6.42914 18.1879 6.51927 18.2919 6.64111C18.3959 6.76294 18.4635 6.91156 18.487 7.06999C18.5243 7.20874 18.5253 7.35472 18.49 7.49399C18.42 7.76899 18.228 7.98299 18.052 8.14699C17.902 8.28699 15.957 10.163 14.038 12.015L11.425 14.535L10.96 14.985L16.832 19.487C16.9113 19.5203 16.9973 19.534 17.083 19.527C17.1262 19.5211 17.1667 19.5031 17.2 19.475C17.2406 19.4408 17.2753 19.4002 17.303 19.355L17.305 19.354L20.195 4.78099C20.104 4.80288 20.0147 4.83163 19.928 4.86699L19.926 4.86799ZM11.465 17.262L10.293 16.364L10.009 18.169L11.465 17.262ZM9.21801 14.582L10.383 13.457L12.996 10.935L13.969 9.99699L7.44901 13.814L7.48401 13.896C7.89521 14.8674 8.30189 15.8408 8.70401 16.816L8.98701 15.016C9.01262 14.849 9.09405 14.6967 9.21801 14.582Z" fill="black"/>
</svg>
