<svg width="24" height="24" viewBox="0 0 24 24" fill="none" xmlns="http://www.w3.org/2000/svg">
<path d="M18.7692 7.69238H5.23077C4.55103 7.69238 4 8.24342 4 8.92315V18.7693C4 19.449 4.55103 20.0001 5.23077 20.0001H18.7692C19.449 20.0001 20 19.449 20 18.7693V8.92315C20 8.24342 19.449 7.69238 18.7692 7.69238Z" stroke="#171717" stroke-width="1.5" stroke-linecap="round" stroke-linejoin="round"/>
<path d="M7.69226 12H12H16.3076M7.69226 15.6923H16.3076M9.53841 4H14.4615C14.7879 4 15.101 4.12967 15.3318 4.36048C15.5626 4.5913 15.6923 4.90435 15.6923 5.23077V7.69231H8.30765V5.23077C8.30765 4.90435 8.43732 4.5913 8.66813 4.36048C8.89894 4.12967 9.21199 4 9.53841 4Z" stroke="#171717" stroke-width="1.5" stroke-linecap="round" stroke-linejoin="round"/>
</svg>
