<svg width="116" height="64" viewBox="0 0 116 64" fill="none" xmlns="http://www.w3.org/2000/svg">
<g clip-path="url(#clip0_192_942)">
<path d="M9.55248 51.6694H9.98006L10.1161 55.3109H9.55248C9.37259 54.451 8.91676 53.6804 8.26003 53.126C7.60363 52.5926 6.78936 52.3137 5.95694 52.337C5.3825 52.3244 4.81326 52.4526 4.29521 52.7113C3.80754 52.966 3.38716 53.341 3.07078 53.8038C2.7108 54.3275 2.45023 54.9181 2.30309 55.5436C2.11582 56.3035 2.02435 57.0856 2.03099 57.8701C1.94736 59.2564 2.30607 60.6326 3.05135 61.7848C3.39861 62.2365 3.84402 62.5959 4.35088 62.8333C4.85774 63.0708 5.41154 63.1794 5.96665 63.1504C7.91019 63.1504 9.18321 62.068 9.73711 59.9033H10.359V63.8382H9.82457L9.47474 62.594C8.39083 63.5472 7.00586 64.0482 5.58766 64.0001C4.7916 64.011 4.00059 63.8669 3.25542 63.5752C2.5883 63.3089 1.98481 62.8947 1.4868 62.3614C0.999472 61.8143 0.628592 61.1662 0.39842 60.4597C0.125466 59.6577 -0.00940954 58.8119 -5.46456e-06 57.9612C-0.00936412 57.0683 0.135462 56.1809 0.427573 55.3413C0.691213 54.5924 1.09408 53.9049 1.61313 53.3182C2.12982 52.7458 2.7598 52.2972 3.45949 52.0032C4.20923 51.6718 5.01607 51.5031 5.83061 51.5076C6.41101 51.5038 6.9883 51.5959 7.54092 51.7807C8.15469 51.9984 8.74178 52.2903 9.2901 52.6506L9.55248 51.6694Z" fill="currentColor"/>
<path d="M18.6774 59.4278H14.6251C14.4502 59.8594 14.3044 60.2438 14.1878 60.581C14.0615 60.9148 13.9643 61.198 13.8866 61.4408C13.8203 61.6422 13.7683 61.8484 13.7311 62.0578C13.7046 62.1911 13.6883 62.3264 13.6825 62.4624C13.6685 62.5814 13.6866 62.7021 13.7346 62.811C13.7826 62.92 13.8588 63.0129 13.9546 63.0795C14.2421 63.2093 14.5555 63.2648 14.8681 63.2413V63.8381H11.1753V63.2413C11.3789 63.2174 11.5804 63.1768 11.7778 63.1199C11.9325 63.0664 12.0796 62.9915 12.2151 62.8974C12.3476 62.793 12.4625 62.6665 12.5552 62.5231C12.663 62.3421 12.7572 62.1527 12.8371 61.9566L16.7824 51.6693H17.4335L20.8833 60.5911C21.1165 61.1778 21.3206 61.6026 21.4858 61.9971C21.616 62.2876 21.7863 62.5568 21.9911 62.7962C22.1308 62.963 22.3126 63.0856 22.5159 63.1503C22.7352 63.2068 22.9605 63.234 23.1864 63.2312V63.8381H18.2401V63.2312C18.616 63.2543 18.9926 63.1993 19.3479 63.0693C19.4429 63.023 19.5223 62.9482 19.576 62.8544C19.6297 62.7607 19.6552 62.6523 19.6492 62.5433C19.6542 62.4456 19.6542 62.3477 19.6492 62.25C19.6362 62.1509 19.6167 62.0529 19.5909 61.9566C19.5487 61.8343 19.4967 61.7159 19.4354 61.6026C19.3858 61.4441 19.3274 61.2887 19.2605 61.1373L18.6774 59.4278ZM14.9264 58.6692H18.3956L16.7047 54.006L14.9264 58.6692Z" fill="currentColor"/>
<path d="M33.5357 64L26.3155 54.1072H26.2377V60.8541C26.2325 61.2731 26.2519 61.692 26.2961 62.1085C26.3096 62.3579 26.3795 62.6005 26.5001 62.8165C26.6046 62.9857 26.7685 63.1055 26.9569 63.1503C27.2156 63.2085 27.4793 63.239 27.744 63.2414V63.8382H23.6723V63.2414C23.9633 63.241 24.2533 63.2071 24.5372 63.1402C24.7358 63.0946 24.9138 62.9805 25.0425 62.8165C25.1814 62.6179 25.2654 62.3836 25.2854 62.1388C25.3299 61.7495 25.3494 61.3575 25.3437 60.9654V54.5523C25.3618 54.185 25.3618 53.817 25.3437 53.4497C25.3216 53.2069 25.2486 52.9721 25.1299 52.7618C25.0192 52.5905 24.8541 52.4652 24.6635 52.4078C24.4069 52.3306 24.1429 52.2831 23.8763 52.2662V51.6694H26.8791L33.5163 60.8845H33.5843V54.6231C33.5894 54.2109 33.57 53.7987 33.526 53.389C33.5125 53.1349 33.4391 52.8883 33.3122 52.6708C33.2613 52.5863 33.1947 52.5132 33.1162 52.4559C33.0378 52.3986 32.9491 52.3582 32.8555 52.337C32.5996 52.28 32.3395 52.2462 32.0781 52.2358V51.639H36.1595V52.2358C35.8716 52.2439 35.5852 52.2811 35.3043 52.3471C35.1042 52.3888 34.925 52.5036 34.799 52.6708C34.6583 52.8684 34.5741 53.1033 34.5561 53.3485C34.5081 53.7376 34.4854 54.1296 34.4881 54.5219V63.9697L33.5357 64Z" fill="currentColor"/>
<path d="M37.2673 63.8382V63.2414C37.5932 63.2414 37.9184 63.2109 38.2391 63.1503C38.4395 63.1231 38.6268 63.0315 38.7748 62.8882C38.9229 62.745 39.0243 62.5573 39.0651 62.3512C39.1126 62.0503 39.1354 61.7457 39.1331 61.4408V54.0768C39.1379 53.7756 39.1184 53.4744 39.0748 53.1765C39.0659 52.967 38.9946 52.7655 38.8707 52.6C38.7517 52.4608 38.5906 52.368 38.414 52.337C38.1511 52.2811 37.8849 52.2439 37.6172 52.2257V51.6289H42.9522C43.8155 51.6217 44.6725 51.7829 45.4788 52.1043C46.2192 52.3924 46.8956 52.8341 47.467 53.4028C48.0383 53.9714 48.4926 54.655 48.8022 55.412C49.1188 56.2069 49.2775 57.0602 49.2687 57.9207C49.2777 58.7356 49.129 59.544 48.8314 60.2978C48.5514 61.0048 48.1269 61.6399 47.5875 62.159C47.0262 62.6953 46.3646 63.1052 45.644 63.3627C44.8667 63.6619 44.0431 63.8093 43.2145 63.7977L37.2673 63.8382ZM40.9406 52.4482C40.9063 52.4432 40.8713 52.4465 40.8384 52.4579C40.8056 52.4693 40.7757 52.4886 40.7512 52.5141C40.7267 52.5396 40.7082 52.5707 40.6972 52.6049C40.6863 52.6391 40.6831 52.6755 40.6879 52.7112V61.2689C40.6879 62.4625 41.4362 63.0694 42.9522 63.0694C43.541 63.1071 44.1308 63.0119 44.6809 62.7902C45.2311 62.5684 45.7287 62.2254 46.1396 61.7847C46.9471 60.7066 47.3419 59.355 47.2474 57.9915C47.2566 57.1948 47.1552 56.401 46.9461 55.6346C46.7683 55 46.471 54.4086 46.0715 53.8947C45.7002 53.4323 45.2313 53.0654 44.7013 52.8225C44.1286 52.5629 43.5087 52.4352 42.8841 52.4482H40.9406Z" fill="currentColor"/>
<path d="M60.4148 63.8381H50.6V63.2413C50.8903 63.2385 51.1798 63.208 51.4649 63.1503C51.6557 63.1138 51.8317 63.0187 51.9702 62.8771C52.1008 62.7277 52.1854 62.541 52.2131 62.341C52.2564 62.0431 52.2759 61.742 52.2714 61.4408V54.0768C52.29 53.777 52.29 53.4763 52.2714 53.1765C52.2461 52.9815 52.1724 52.7967 52.0576 52.6404C51.9366 52.4985 51.7715 52.4054 51.5912 52.3774C51.3315 52.3221 51.0685 52.2849 50.804 52.2661V51.6693H55.3908V52.2661C55.1293 52.2764 54.8692 52.3103 54.6134 52.3673C54.4339 52.4029 54.2722 52.5032 54.1567 52.6505C54.0362 52.815 53.9622 53.0111 53.9429 53.217C53.8968 53.5519 53.8773 53.8902 53.8846 54.2285V60.9957C53.8754 61.3616 53.9213 61.7268 54.0206 62.078C54.0818 62.3306 54.222 62.5548 54.419 62.7153C54.6679 62.8855 54.9501 62.9961 55.245 63.039C55.6768 63.0972 56.1119 63.1242 56.5472 63.1199C57.0382 63.1282 57.5289 63.0944 58.0146 63.0188C58.3572 62.9603 58.6865 62.8369 58.9863 62.6546C59.2569 62.4735 59.4778 62.2226 59.6277 61.9263C59.8203 61.5346 59.9671 61.1203 60.065 60.6922H60.6383L60.4148 63.8381Z" fill="currentColor"/>
<path d="M64.9044 57.1518C65.3663 57.1606 65.8281 57.1267 66.2843 57.0507C66.5966 57.0041 66.8971 56.8941 67.1686 56.727C67.3757 56.5918 67.5384 56.3942 67.6351 56.1605C67.7378 55.9009 67.7874 55.6219 67.7808 55.3412H68.3153V59.6807H67.7808C67.7831 59.4021 67.7404 59.1252 67.6545 58.8613C67.5626 58.625 67.4032 58.4237 67.1978 58.2848C66.9278 58.1103 66.6272 57.9934 66.3135 57.9408C65.8489 57.851 65.3768 57.8104 64.9044 57.8195V61.3902C64.8991 61.6822 64.9418 61.973 65.0307 62.25C65.1089 62.4774 65.2555 62.6725 65.4486 62.8063C65.6837 62.9646 65.9489 63.0681 66.226 63.1098C66.6253 63.167 67.028 63.1941 67.431 63.1907C67.89 63.1954 68.3485 63.1582 68.8012 63.0795C69.1486 63.0161 69.4795 62.8783 69.773 62.6748C70.0314 62.4754 70.2411 62.2156 70.3852 61.9162C70.5521 61.5264 70.6665 61.1145 70.7253 60.6922H71.2987L71.0751 63.7976H61.6393V63.2008C61.9296 63.198 62.2191 63.1675 62.5041 63.1098C62.695 63.0733 62.871 62.9782 63.0095 62.8367C63.145 62.6908 63.2304 62.5023 63.2524 62.3006C63.2957 62.0027 63.3152 61.7016 63.3107 61.4003V54.0768C63.318 53.7758 63.3018 53.4747 63.2621 53.1765C63.2368 52.9815 63.1631 52.7967 63.0483 52.6404C62.9273 52.4985 62.7622 52.4054 62.5819 52.3774C62.3222 52.3221 62.0592 52.2849 61.7948 52.2661V51.6693H70.5407L70.6767 54.451H70.152C70.1077 54.0984 70.0058 53.7563 69.8507 53.4395C69.7222 53.1749 69.5275 52.9512 69.2871 52.7921C69.0096 52.6225 68.7023 52.5124 68.3833 52.4684C67.9499 52.3933 67.5108 52.3594 67.0715 52.3673H65.1279C65.0923 52.3623 65.0561 52.3659 65.0221 52.3778C64.9881 52.3898 64.9571 52.4098 64.9317 52.4362C64.9064 52.4626 64.8872 52.4948 64.8757 52.5302C64.8642 52.5656 64.8607 52.6033 64.8655 52.6404L64.9044 57.1518Z" fill="currentColor"/>
<path d="M81.0163 63.8382V63.2414C81.3422 63.2406 81.6674 63.2101 81.9881 63.1503C82.1918 63.1186 82.3815 63.0234 82.5323 62.8772C82.67 62.7304 82.7615 62.5434 82.7947 62.3411C82.8467 62.0442 82.8695 61.7426 82.8627 61.4408V54.0768C82.8675 53.7756 82.848 53.4744 82.8044 53.1766C82.7955 52.967 82.7241 52.7655 82.6003 52.6C82.4793 52.4581 82.3142 52.365 82.1339 52.337C81.8742 52.2817 81.6112 52.2446 81.3467 52.2257V51.6289H85.8849C86.9949 51.5636 88.0999 51.8266 89.0723 52.3876C89.428 52.6048 89.7212 52.9174 89.9212 53.2929C90.1212 53.6683 90.2207 54.0928 90.2093 54.5219C90.2213 54.8358 90.1724 55.1489 90.0656 55.4426C89.9587 55.7363 89.7961 56.0046 89.5873 56.2314C89.0155 56.7599 88.3283 57.1349 87.5855 57.3239V57.3846C87.8965 57.3846 88.1686 57.4554 88.4018 57.4958C88.6125 57.5299 88.8204 57.5807 89.0237 57.6476C89.2019 57.6999 89.3745 57.7711 89.5387 57.86C89.6964 57.9446 89.8489 58.0392 89.9955 58.1432C90.4116 58.412 90.7544 58.7876 90.991 59.234C91.2275 59.6803 91.3499 60.1825 91.3462 60.6923C91.3444 61.247 91.1855 61.7888 90.8895 62.2501C90.5837 62.7403 90.1531 63.1326 89.6456 63.383C89.4753 63.4762 89.2962 63.5507 89.1112 63.6055C88.8888 63.669 88.6609 63.7097 88.4309 63.7269C88.1511 63.7727 87.8687 63.7997 87.5855 63.8078C87.2745 63.8078 86.8955 63.8078 86.4582 63.8078L81.0163 63.8382ZM85.2921 57.0407H86.0793C86.2618 57.0338 86.4436 57.0135 86.6234 56.98C86.7637 56.9622 86.901 56.9248 87.0316 56.8687C87.4691 56.6792 87.8345 56.3451 88.0714 55.9178C88.2206 55.5539 88.2903 55.1601 88.2754 54.7647C88.3054 54.4388 88.269 54.1099 88.1686 53.7996C88.0681 53.4894 87.9058 53.2047 87.6924 52.9642C87.1646 52.5638 86.5164 52.3736 85.8655 52.428H84.6993C84.5244 52.428 84.437 52.509 84.437 52.691V57.0508L85.2921 57.0407ZM86.536 63.1099C88.3629 63.1099 89.2861 62.3007 89.2861 60.662C89.3218 60.1447 89.2052 59.6284 88.9517 59.182C88.6982 58.7356 88.3199 58.3803 87.8673 58.1635L87.4009 57.9713C87.227 57.9148 87.0478 57.8775 86.8664 57.86C86.6279 57.8264 86.3879 57.8061 86.1473 57.7993H84.437V61.3195C84.4141 61.5735 84.4459 61.8297 84.5299 62.0694C84.6139 62.309 84.7482 62.5263 84.9228 62.7053C85.3973 63.0388 85.9647 63.1989 86.536 63.1605V63.1099Z" fill="currentColor"/>
<path d="M99.305 59.4278H95.2333C95.0584 59.8628 94.9126 60.2472 94.7863 60.581C94.66 60.9148 94.5725 61.198 94.4948 61.4408C94.4285 61.6422 94.3765 61.8484 94.3393 62.0578C94.3242 62.1922 94.3242 62.328 94.3393 62.4624C94.3253 62.5814 94.3433 62.7021 94.3914 62.811C94.4394 62.92 94.5156 63.0129 94.6114 63.0795C94.8989 63.2093 95.2123 63.2648 95.5248 63.2413V63.8381H91.8321V63.2413C92.0357 63.2174 92.2372 63.1768 92.4346 63.1199C92.5893 63.0664 92.7363 62.9915 92.8719 62.8974C93.0037 62.7954 93.1158 62.6684 93.2023 62.5231C93.3138 62.3443 93.4082 62.1546 93.4841 61.9566L97.4392 51.6693H98.0903L101.54 60.5911C101.773 61.1778 101.968 61.6026 102.143 61.9971C102.273 62.2876 102.443 62.5568 102.648 62.7962C102.784 62.967 102.967 63.0905 103.173 63.1503C103.392 63.2068 103.617 63.234 103.843 63.2312V63.8381H98.8969V63.2312C99.2728 63.2543 99.6494 63.1993 100.005 63.0693C100.1 63.023 100.179 62.9482 100.233 62.8544C100.286 62.7607 100.312 62.6523 100.306 62.5433C100.311 62.4456 100.311 62.3477 100.306 62.25C100.306 62.1691 100.306 62.0679 100.248 61.9566C100.189 61.8454 100.189 61.7341 100.141 61.6026L99.9658 61.1373L99.305 59.4278ZM95.554 58.6692H99.0135L97.3323 54.006L95.554 58.6692Z" fill="currentColor"/>
<path d="M113.609 54.7242C113.633 55.4966 113.372 56.2491 112.881 56.8282C112.248 57.4609 111.431 57.856 110.558 57.951L113.911 62.1489C114.153 62.4672 114.462 62.7233 114.814 62.8975C115.192 63.071 115.591 63.1868 116 63.2414V63.8382H113.085L109.363 58.8816C109.257 58.7247 109.133 58.582 108.994 58.4568C108.884 58.3531 108.759 58.2678 108.624 58.2039C108.484 58.1479 108.337 58.1105 108.187 58.0926H107.584V61.3801C107.58 61.7187 107.603 62.0571 107.653 62.3917C107.686 62.6121 107.788 62.8148 107.944 62.9683C108.13 63.1179 108.352 63.2123 108.585 63.2414C108.949 63.2965 109.316 63.3202 109.684 63.3122V63.909H104.319V63.3122C104.61 63.3093 104.899 63.2789 105.184 63.2211C105.375 63.1847 105.551 63.0895 105.69 62.948C105.82 62.7986 105.905 62.6119 105.932 62.4119C105.976 62.114 105.995 61.8129 105.991 61.5116V54.0768C106.009 53.7771 106.009 53.4764 105.991 53.1766C105.965 52.9816 105.892 52.7968 105.777 52.6405C105.656 52.4986 105.491 52.4055 105.311 52.3775C105.051 52.3222 104.788 52.285 104.523 52.2662V51.6694H109.295C110.426 51.6014 111.552 51.8829 112.531 52.4786C112.881 52.7242 113.165 53.0601 113.354 53.4536C113.543 53.8471 113.631 54.2848 113.609 54.7242ZM107.565 57.2834H108.644C109.435 57.3449 110.224 57.143 110.898 56.7068C111.159 56.4753 111.363 56.1815 111.492 55.8503C111.62 55.5192 111.67 55.1606 111.637 54.8051C111.668 54.4729 111.632 54.1376 111.532 53.8206C111.432 53.5036 111.269 53.2119 111.054 52.9642C110.529 52.556 109.879 52.3617 109.227 52.4179H107.866C107.691 52.4179 107.604 52.4988 107.604 52.6809L107.565 57.2834Z" fill="currentColor"/>
<path d="M48.1608 37.781C47.823 37.3035 47.6119 36.7418 47.5486 36.1524C47.4383 35.2332 47.3896 34.3071 47.4029 33.3808V6.59527C47.4022 6.54316 47.3898 6.49193 47.3667 6.4457C47.3436 6.39946 47.3104 6.3595 47.2697 6.32902C47.2291 6.29854 47.1822 6.27838 47.1328 6.27017C47.0833 6.26195 47.0327 6.2659 46.985 6.2817C46.3467 6.41129 45.7432 6.68398 45.2164 7.08081C44.6362 7.74541 43.8602 8.19024 43.0105 8.34523C42.9706 7.69283 42.8564 7.04767 42.6704 6.42331C42.7491 7.06471 42.7491 7.71395 42.6704 8.35535C42.0799 8.31321 41.4944 8.21502 40.9212 8.062C39.8425 7.87993 38.9776 7.57646 38.5889 8.062C38.4237 8.23396 38.4237 8.65881 38.3557 8.96227C38.1808 9.68046 37.8018 9.97381 37.8504 10.4593C37.8606 10.5539 37.8936 10.6442 37.9463 10.722C37.9989 10.7998 38.0695 10.8625 38.1516 10.9044C38.2473 10.9457 38.3524 10.9571 38.4542 10.9374C38.556 10.9176 38.65 10.8675 38.725 10.7932C38.8412 10.6706 38.9395 10.5308 39.0165 10.3784C39.0955 10.2484 39.1939 10.1323 39.308 10.0345C39.4951 9.89988 39.7068 9.8069 39.93 9.76139C40.5511 9.73093 41.1732 9.79569 41.7763 9.95358C42.1665 10.0291 42.5142 10.2571 42.7481 10.5908C42.8571 10.7554 42.9331 10.9412 42.9716 11.1371C43.0202 11.367 43.0527 11.6002 43.0688 11.835C43.0688 12.2194 43.0688 12.7151 43.0688 13.3321C43.0688 13.5142 43.0688 13.6862 43.0688 13.8783C43.0688 14.8899 43.0688 16.1138 43.0688 17.53V33.7146C43.0768 34.5637 43.0249 35.4124 42.9133 36.2536C42.8562 36.8206 42.6361 37.3564 42.2816 37.7911C41.9091 38.1798 41.4423 38.4559 40.9309 38.5902C40.1853 38.7717 39.4226 38.8666 38.6569 38.8734V40.5526H51.8147V38.8633C51.0367 38.8563 50.2616 38.7648 49.5019 38.5902C48.9804 38.4845 48.5081 38.1995 48.1608 37.781Z" fill="currentColor"/>
<path d="M77.5666 28.323C77.2042 27.3692 76.6882 26.4866 76.0409 25.7133C75.3692 24.9168 74.5823 24.2343 73.7086 23.6902C72.797 23.1295 71.8162 22.7008 70.7933 22.4157C71.6952 22.1284 72.5362 21.665 73.2713 21.0501C74.0056 20.524 74.6775 19.9095 75.2732 19.2192C75.8411 18.493 76.2998 17.6812 76.6337 16.8117C76.9708 15.9124 77.1423 14.955 77.139 13.9895C77.1499 12.8729 76.9033 11.7698 76.4199 10.7729C75.9335 9.79901 75.2386 8.95455 74.3889 8.3047C73.4266 7.58674 72.3512 7.04928 71.2112 6.71659C69.8588 6.31661 68.4579 6.12241 67.052 6.14001C65.805 6.12898 64.5614 6.27847 63.3496 6.58509C62.3356 6.83085 61.3694 7.25505 60.4926 7.8394C59.7411 8.33806 59.1095 9.00937 58.6462 9.80178C58.2085 10.5768 57.9833 11.462 57.9951 12.361C57.9794 12.9934 58.0852 13.6227 58.3061 14.2121C58.5457 14.759 58.8745 15.2587 59.2779 15.6889C59.6569 16.1232 60.1208 16.4681 60.6383 16.7005C61.179 16.9398 61.7612 17.0603 62.3487 17.0545C63.024 17.0739 63.6929 16.9137 64.2922 16.5892C64.535 16.4716 64.7518 16.3031 64.929 16.0943C65.1063 15.8854 65.2402 15.6406 65.3223 15.3754C64.9147 15.3904 64.5087 15.3162 64.1304 15.1576C63.7521 14.9991 63.4099 14.7597 63.1261 14.4549C62.5466 13.7941 62.2425 12.921 62.2806 12.0272C62.2504 11.4731 62.3465 10.9195 62.561 10.4114C62.7754 9.90341 63.1023 9.45534 63.5148 9.10382C64.5522 8.36479 65.7975 8.00867 67.052 8.09228C70.3884 8.09228 72.0566 10.1491 72.0566 14.2627C72.1524 16.2458 71.6715 18.2128 70.6767 19.907C69.7633 21.2423 68.5194 22.2538 67.052 21.9706C66.6147 21.8998 66.1871 21.7076 65.7207 21.6165C65.3069 21.5375 64.8877 21.4935 64.4671 21.485C63.976 21.4626 63.4884 21.5816 63.0581 21.829C62.9108 21.9245 62.7907 22.0592 62.7104 22.2193C62.6301 22.3794 62.5924 22.559 62.6013 22.7394C62.6048 22.9508 62.6579 23.1582 62.7562 23.3434C62.8545 23.5285 62.9948 23.6858 63.1649 23.8015C63.5758 24.0941 64.067 24.2397 64.5643 24.2162C65.044 24.2082 65.5207 24.1368 65.9831 24.0038C66.3133 23.9053 66.6377 23.7871 66.9548 23.6497C67.3471 23.4772 67.7768 23.4178 68.1987 23.4778C68.8329 23.5531 69.445 23.7657 69.9956 24.1019C70.5462 24.4382 71.0232 24.8905 71.3958 25.43C72.4337 27.1177 72.9305 29.1046 72.8146 31.1048C72.9471 33.1605 72.4096 35.2026 71.2889 36.9009C70.7533 37.58 70.0707 38.1174 69.2971 38.469C68.5235 38.8207 67.6809 38.9766 66.8382 38.924C65.3751 38.998 63.9389 38.496 62.8151 37.5179C62.3029 37.0664 61.8941 36.5015 61.6184 35.8645C61.3426 35.2275 61.207 34.5344 61.2214 33.8359C61.1636 32.708 61.5099 31.5979 62.1932 30.7204C62.5178 30.3303 62.9215 30.02 63.3752 29.8118C63.8289 29.6037 64.3213 29.5029 64.8169 29.5167C64.7373 29.2215 64.6017 28.9459 64.4181 28.7061C64.2345 28.4664 64.0067 28.2673 63.748 28.1207C63.1 27.7488 62.3695 27.5604 61.6295 27.5745C60.9607 27.5664 60.2979 27.7078 59.686 27.9892C59.0957 28.2689 58.5691 28.6757 58.1409 29.1828C57.7006 29.7112 57.3491 30.3131 57.1011 30.9632C56.8444 31.6674 56.7159 32.4151 56.7221 33.1683C56.7135 34.2586 56.9781 35.3325 57.4898 36.2838C58.0139 37.2581 58.7371 38.1006 59.6083 38.752C60.5791 39.477 61.6597 40.0275 62.8054 40.3806C64.1164 40.7901 65.4793 40.9913 66.8479 40.9774C68.3792 40.9951 69.9028 40.749 71.357 40.2491C72.6445 39.8044 73.8432 39.1188 74.8942 38.226C75.8654 37.3938 76.6597 36.3604 77.2264 35.1914C77.7954 34.0082 78.0852 32.7009 78.0719 31.3779C78.083 30.3361 77.9118 29.3009 77.5666 28.323Z" fill="currentColor"/>
<path d="M41.786 7.34377C41.6694 7.13475 41.5946 6.90331 41.5662 6.6634C41.5379 6.42349 41.5564 6.18008 41.6208 5.94784C41.7917 5.10661 42.2599 4.3629 42.9327 3.86407C42.5246 4.54181 43.3895 5.1993 43.613 5.55334C43.8383 6.0569 43.8797 6.62863 43.7296 7.16169C44.0604 6.97603 44.3418 6.70793 44.5487 6.38136C44.7556 6.0548 44.8815 5.67995 44.9151 5.29034C44.9434 5.00121 44.917 4.7091 44.8374 4.43054C44.656 3.86712 44.3832 3.34023 44.0308 2.87277C43.6768 2.4994 43.4544 2.01246 43.3998 1.49097C43.3451 0.969489 43.4613 0.444073 43.7296 0C43.7296 0 41.203 1.64881 40.5227 3.54038C39.755 5.66461 40.7365 6.98973 41.786 7.34377Z" fill="currentColor"/>
</g>
<defs>
<clipPath id="clip0_192_942">
<rect width="116" height="64" fill="white"/>
</clipPath>
</defs>
</svg>
