<svg width="24" height="24" viewBox="0 0 24 24" fill="none" xmlns="http://www.w3.org/2000/svg">
<path fill-rule="evenodd" clip-rule="evenodd" d="M4 7.42857V16.5714C4 17.1776 4.24082 17.759 4.66947 18.1877C5.09812 18.6163 5.67951 18.8571 6.28571 18.8571H17.7143C18.3205 18.8571 18.9019 18.6163 19.3305 18.1877C19.7592 17.759 20 17.1776 20 16.5714V7.42857C20 6.82236 19.7592 6.24098 19.3305 5.81232C18.9019 5.38367 18.3205 5.14285 17.7143 5.14285H6.28571C5.67951 5.14285 5.09812 5.38367 4.66947 5.81232C4.24082 6.24098 4 6.82236 4 7.42857Z" stroke="black" stroke-width="1.5" stroke-linecap="round" stroke-linejoin="round"/>
<path d="M6.28571 8.57141L12 12L17.7143 8.57141" stroke="black" stroke-width="1.5" stroke-linecap="round" stroke-linejoin="round"/>
</svg>
