<svg width="24" height="24" viewBox="0 0 24 24" fill="none" xmlns="http://www.w3.org/2000/svg">
<path d="M19.5 21.75H19.3725C4.635 20.9025 2.5425 8.4675 2.25 4.6725C2.22643 4.37744 2.26132 4.08062 2.35266 3.79906C2.444 3.5175 2.59 3.25673 2.78229 3.03169C2.97458 2.80665 3.20939 2.62177 3.47326 2.48763C3.73713 2.35349 4.02487 2.27274 4.32 2.25H8.4525C8.75292 2.24971 9.0465 2.33963 9.29523 2.50812C9.54395 2.67661 9.73635 2.9159 9.8475 3.195L10.9875 6C11.0973 6.27266 11.1245 6.57156 11.0658 6.85957C11.0072 7.14758 10.8652 7.412 10.6575 7.62L9.06 9.2325C9.30954 10.6506 9.98864 11.9578 11.0054 12.9772C12.0222 13.9967 13.3276 14.6792 14.745 14.9325L16.3725 13.32C16.5836 13.1146 16.8505 12.9759 17.14 12.9213C17.4294 12.8666 17.7285 12.8983 18 13.0125L20.8275 14.145C21.1024 14.2597 21.3369 14.4536 21.5012 14.702C21.6655 14.9504 21.7521 15.2422 21.75 15.54V19.5C21.75 20.0967 21.513 20.669 21.091 21.091C20.669 21.5129 20.0967 21.75 19.5 21.75ZM4.5 3.75C4.30109 3.75 4.11032 3.82902 3.96967 3.96967C3.82902 4.11032 3.75 4.30109 3.75 4.5V4.56C4.095 9 6.3075 19.5 19.455 20.25C19.5535 20.2561 19.6523 20.2427 19.7456 20.2105C19.839 20.1783 19.925 20.1281 19.9989 20.0626C20.0727 19.9971 20.1329 19.9176 20.176 19.8288C20.2191 19.74 20.2443 19.6436 20.25 19.545V15.54L17.4225 14.4075L15.27 16.545L14.91 16.5C8.385 15.6825 7.5 9.1575 7.5 9.09L7.455 8.73L9.585 6.5775L8.46 3.75H4.5Z" fill="black"/>
</svg>
