<svg width="28" height="28" viewBox="0 0 28 28" fill="none" xmlns="http://www.w3.org/2000/svg">
<path d="M11.0451 19.3868H21.1577C21.4957 19.3868 21.7903 19.0831 21.7903 18.6749C21.7903 18.2667 21.4957 17.963 21.1577 17.963H11.1924C10.6984 17.963 10.3951 17.5833 10.3172 17.0043L8.89601 6.43947C8.80936 5.70858 8.56672 5.33838 7.68284 5.33838H4.64125C4.29463 5.33838 4 5.67061 4 6.05029C4 6.43947 4.29463 6.7717 4.64125 6.7717H7.57018L8.95666 17.1941C9.13864 18.542 9.78855 19.3868 11.0451 19.3868ZM9.4506 16.0076H21.1751C22.4402 16.0076 23.0901 15.1533 23.2721 13.7959L23.9653 8.77455C23.9826 8.65115 24 8.49928 24 8.41385C24 7.95822 23.688 7.64498 23.2114 7.64498H8.6967L8.70537 9.0783H22.5269L21.9116 13.625C21.8423 14.2136 21.5563 14.5838 21.0451 14.5838H9.43327L9.4506 16.0076ZM11.7296 24C12.5095 24 13.1335 23.3261 13.1335 22.4623C13.1335 21.608 12.5095 20.9245 11.7296 20.9245C10.9411 20.9245 10.3172 21.608 10.3172 22.4623C10.3172 23.3261 10.9411 24 11.7296 24ZM19.8319 24C20.6205 24 21.2443 23.3261 21.2443 22.4623C21.2443 21.608 20.6205 20.9245 19.8319 20.9245C19.052 20.9245 18.4194 21.608 18.4194 22.4623C18.4194 23.3261 19.052 24 19.8319 24Z" fill="#171717"/>
</svg>
