<svg width="24" height="24" viewBox="0 0 24 24" fill="none" xmlns="http://www.w3.org/2000/svg">
<path d="M7.965 6.202C7.77915 6.17495 7.58964 6.21236 7.428 6.308H7.414C7.039 6.528 6.701 6.805 6.413 7.131C6.173 7.408 6.043 7.688 6.009 7.958C5.989 8.118 6.003 8.28 6.05 8.433L6.068 8.443C6.338 9.236 6.69 9.999 7.12 10.717C7.67445 11.7255 8.35676 12.6582 9.15 13.492L9.174 13.526L9.212 13.554L9.235 13.581L9.263 13.605C10.0997 14.4006 11.0346 15.0862 12.045 15.645C13.2 16.274 13.901 16.571 14.322 16.695V16.701C14.445 16.739 14.557 16.756 14.67 16.756C15.0285 16.7295 15.3679 16.5838 15.634 16.342C15.959 16.054 16.234 15.715 16.448 15.338V15.331C16.649 14.951 16.581 14.593 16.291 14.35C15.7085 13.841 15.0786 13.389 14.41 13C13.962 12.757 13.507 12.904 13.323 13.15L12.93 13.646C12.728 13.892 12.362 13.858 12.362 13.858L12.352 13.864C9.621 13.167 8.892 10.402 8.892 10.402C8.892 10.402 8.858 10.026 9.111 9.834L9.603 9.438C9.839 9.246 10.003 8.792 9.75 8.344C9.36361 7.67476 8.91244 7.04508 8.403 6.464C8.29189 6.32725 8.13607 6.23411 7.963 6.201L7.965 6.202ZM12.58 5C12.4474 5 12.3202 5.05268 12.2264 5.14645C12.1327 5.24021 12.08 5.36739 12.08 5.5C12.08 5.63261 12.1327 5.75979 12.2264 5.85355C12.3202 5.94732 12.4474 6 12.58 6C13.844 6 14.894 6.413 15.725 7.205C16.152 7.638 16.485 8.151 16.703 8.713C16.922 9.276 17.022 9.877 16.996 10.479C16.9904 10.6116 17.0378 10.741 17.1276 10.8387C17.2174 10.9364 17.3424 10.9944 17.475 11C17.6076 11.0056 17.737 10.9582 17.8347 10.8684C17.9324 10.7786 17.9904 10.6536 17.996 10.521C18.027 9.78049 17.9041 9.04159 17.635 8.351C17.3647 7.65714 16.955 7.02612 16.431 6.497L16.421 6.487C15.39 5.502 14.086 5 12.58 5Z" fill="#171717"/>
<path d="M12.545 6.64401C12.4124 6.64401 12.2852 6.69668 12.1915 6.79045C12.0977 6.88422 12.045 7.0114 12.045 7.14401C12.045 7.27661 12.0977 7.40379 12.1915 7.49756C12.2852 7.59133 12.4124 7.64401 12.545 7.64401H12.562C13.474 7.70901 14.138 8.01301 14.603 8.51201C15.08 9.02601 15.327 9.66501 15.308 10.455C15.305 10.5876 15.3547 10.716 15.4463 10.8119C15.5379 10.9079 15.6639 10.9635 15.7965 10.9665C15.9291 10.9696 16.0575 10.9198 16.1534 10.8282C16.2494 10.7366 16.305 10.6106 16.308 10.478C16.332 9.441 15.998 8.54601 15.336 7.83201V7.83001C14.659 7.10401 13.73 6.72001 12.612 6.64501L12.595 6.64301L12.545 6.64401Z" fill="#171717"/>
<path d="M12.526 8.31901C12.4591 8.31311 12.3917 8.32075 12.3278 8.34147C12.2639 8.3622 12.2048 8.39559 12.1541 8.43965C12.1034 8.48371 12.0621 8.53753 12.0326 8.59791C12.0032 8.65829 11.9862 8.72398 11.9827 8.79106C11.9792 8.85814 11.9893 8.92524 12.0123 8.98835C12.0353 9.05146 12.0708 9.10929 12.1167 9.15838C12.1625 9.20747 12.2178 9.24682 12.2792 9.27407C12.3406 9.30133 12.4068 9.31593 12.474 9.31701C12.892 9.33901 13.159 9.46501 13.327 9.63401C13.496 9.80401 13.622 10.077 13.645 10.504C13.6463 10.5711 13.661 10.6373 13.6884 10.6986C13.7157 10.7598 13.7551 10.815 13.8043 10.8607C13.8534 10.9064 13.9112 10.9418 13.9743 10.9647C14.0374 10.9876 14.1044 10.9976 14.1714 10.994C14.2384 10.9905 14.3041 10.9734 14.3644 10.944C14.4247 10.9145 14.4784 10.8732 14.5224 10.8226C14.5664 10.7719 14.5998 10.7129 14.6205 10.6491C14.6412 10.5852 14.6489 10.5179 14.643 10.451C14.611 9.85101 14.423 9.32101 14.038 8.93101C13.651 8.54101 13.124 8.35101 12.526 8.31901Z" fill="#171717"/>
<path fill-rule="evenodd" clip-rule="evenodd" d="M7.06699 2.384C10.2491 1.6727 13.5489 1.6727 16.731 2.384L17.07 2.459C18.0002 2.66695 18.8545 3.12872 19.5381 3.79302C20.2216 4.45731 20.7076 5.29811 20.942 6.222C21.7497 9.40489 21.7497 12.7391 20.942 15.922C20.7076 16.8459 20.2216 17.6867 19.5381 18.351C18.8545 19.0153 18.0002 19.477 17.07 19.685L16.73 19.76C14.737 20.2057 12.692 20.3736 10.653 20.259L7.99999 22.633C7.89997 22.7225 7.77775 22.7836 7.64608 22.8098C7.51441 22.836 7.37812 22.8264 7.25144 22.7819C7.12476 22.7375 7.01233 22.6599 6.92588 22.5572C6.83944 22.4544 6.78215 22.3304 6.75999 22.198L6.32099 19.576C5.47918 19.3141 4.7186 18.8406 4.11196 18.2009C3.50532 17.5611 3.07289 16.7765 2.85599 15.922C2.04825 12.7391 2.04825 9.40488 2.85599 6.222C3.09041 5.29811 3.57639 4.45731 4.25993 3.79302C4.94346 3.12872 5.7978 2.66695 6.72799 2.459L7.06699 2.384ZM16.404 3.847C13.4373 3.1838 10.3607 3.1838 7.39399 3.847L7.05399 3.923C6.39471 4.07065 5.78926 4.39815 5.30487 4.86913C4.82048 5.3401 4.4761 5.93612 4.30999 6.591C3.56371 9.53172 3.56371 12.6123 4.30999 15.553C4.47618 16.208 4.8207 16.8041 5.30528 17.2751C5.78986 17.7461 6.39553 18.0735 7.05499 18.221L7.14499 18.241C7.29059 18.2736 7.42316 18.3488 7.52577 18.4571C7.62837 18.5654 7.69634 18.7019 7.72099 18.849L8.01499 20.607L9.88699 18.932C9.96175 18.8649 10.0492 18.8135 10.1442 18.7809C10.2392 18.7482 10.3398 18.735 10.44 18.742C12.4391 18.8838 14.4481 18.7339 16.404 18.297L16.743 18.221C17.4025 18.0735 18.0081 17.7461 18.4927 17.2751C18.9773 16.8041 19.3218 16.208 19.488 15.553C20.234 12.613 20.234 9.532 19.488 6.591C19.3218 5.936 18.9773 5.33989 18.4927 4.8689C18.0081 4.39792 17.4025 4.07049 16.743 3.923L16.404 3.847Z" fill="#171717"/>
</svg>
