<svg width="24" height="24" viewBox="0 0 24 24" fill="none" xmlns="http://www.w3.org/2000/svg">
<path d="M16 7C16 6.73478 16.1054 6.48043 16.2929 6.29289C16.4804 6.10536 16.7348 6 17 6C17.2652 6 17.5196 6.10536 17.7071 6.29289C17.8946 6.48043 18 6.73478 18 7C18 7.26522 17.8946 7.51957 17.7071 7.70711C17.5196 7.89464 17.2652 8 17 8C16.7348 8 16.4804 7.89464 16.2929 7.70711C16.1054 7.51957 16 7.26522 16 7Z" fill="black"/>
<path fill-rule="evenodd" clip-rule="evenodd" d="M12 7.25C10.7402 7.25 9.53204 7.75045 8.64124 8.64124C7.75045 9.53204 7.25 10.7402 7.25 12C7.25 13.2598 7.75045 14.468 8.64124 15.3588C9.53204 16.2496 10.7402 16.75 12 16.75C13.2598 16.75 14.468 16.2496 15.3588 15.3588C16.2496 14.468 16.75 13.2598 16.75 12C16.75 10.7402 16.2496 9.53204 15.3588 8.64124C14.468 7.75045 13.2598 7.25 12 7.25ZM8.75 12C8.75 11.138 9.09241 10.3114 9.7019 9.7019C10.3114 9.09241 11.138 8.75 12 8.75C12.862 8.75 13.6886 9.09241 14.2981 9.7019C14.9076 10.3114 15.25 11.138 15.25 12C15.25 12.862 14.9076 13.6886 14.2981 14.2981C13.6886 14.9076 12.862 15.25 12 15.25C11.138 15.25 10.3114 14.9076 9.7019 14.2981C9.09241 13.6886 8.75 12.862 8.75 12Z" fill="black"/>
<path fill-rule="evenodd" clip-rule="evenodd" d="M17.258 2.833C13.7634 2.4456 10.2366 2.4456 6.74199 2.833C4.72999 3.058 3.10499 4.643 2.86899 6.665C2.45439 10.2096 2.45439 13.7904 2.86899 17.335C3.10499 19.357 4.72899 20.942 6.74199 21.167C10.2366 21.554 13.7633 21.554 17.258 21.167C19.27 20.942 20.895 19.357 21.131 17.335C21.5457 13.7904 21.5457 10.2096 21.131 6.665C20.895 4.643 19.271 3.058 17.258 2.833ZM6.90799 4.323C10.2923 3.94788 13.7077 3.94788 17.092 4.323C18.422 4.473 19.487 5.522 19.642 6.84C20.0429 10.2683 20.0429 13.7317 19.642 17.16C19.5618 17.805 19.2665 18.4042 18.8038 18.8608C18.3411 19.3173 17.7381 19.6045 17.092 19.676C13.7077 20.0512 10.2923 20.0512 6.90799 19.676C6.26194 19.6045 5.65885 19.3173 5.19615 18.8608C4.73345 18.4042 4.43817 17.805 4.35799 17.16C3.95704 13.7317 3.95704 10.2683 4.35799 6.84C4.43817 6.19496 4.73345 5.59578 5.19615 5.13925C5.65885 4.68273 6.26194 4.39451 6.90799 4.323Z" fill="black"/>
</svg>
